<svg version="1.1" id="Layer_1" xmlns="http://www.w3.org/2000/svg" xmlns:xlink="http://www.w3.org/1999/xlink" x="0px" y="0px"
	 viewBox="-183 185 32 32" enable-background="new -183 185 32 32" xml:space="preserve">
<g>
<circle fill="#D3D3D3" cx="-167" cy="201" r="16"/>
<g>
<path fill="#FFFFFF" d="M-164,191c0,0-4.6,0-6.2,0c-2.8,0-5.5,2-5.5,4.5c0,2.5,1.9,4.5,4.8,4.5c0.2,0,0.4,0,0.6-0.1
			c-0.2,0.4-0.3,0.7-0.3,1.2c0,0.7,0.4,1.3,0.9,1.7c-0.4,0-0.7,0-1.1,0c-3.5,0-6.2,2.2-6.2,4.5c0,2.3,2.9,3.7,6.4,3.7
			c4,0,6.2-2.3,6.2-4.5c0-1.8-0.5-2.9-2.2-4.1c-0.6-0.4-1.7-1.4-1.7-2c0-0.7,0.2-1,1.2-1.8c1-0.8,1.8-1.8,1.8-3.1
			c0-1.6-0.7-3.5-2-3.5h2.2L-164,191z M-166.1,206.1c0,0.2,0.1,0.4,0.1,0.6c0,1.8-1.2,3.3-4.6,3.3c-2.4,0-4.2-1.5-4.2-3.4
			c0-1.8,2.2-3.3,4.6-3.3c0.6,0,1.1,0.1,1.6,0.2C-167.3,204.5-166.3,205-166.1,206.1z M-169.9,199.2c-1.6,0-3.2-1.8-3.4-3.9
			c-0.3-2.1,0.8-3.8,2.4-3.7c1.6,0,3.2,1.8,3.4,3.9C-167.2,197.6-168.3,199.3-169.9,199.2z"/>
<polygon fill="#FFFFFF" points="-159,199 -159,196 -161,196 -161,199 -164,199 -164,201 -161,201 -161,204 -159,204 -159,201 
			-156,201 -156,199 		"/>
</g>
</g>
</svg>