<svg version="1.1" id="Livello_1" xmlns="http://www.w3.org/2000/svg" xmlns:xlink="http://www.w3.org/1999/xlink" x="0px" y="0px"
	 viewBox="-128 130.3 141.7 141.7" enable-background="new -128 130.3 141.7 141.7" xml:space="preserve">
<g id="Livello_110">
	<path fill="#00000" d="M-32.7,180.9c0,14-11.4,25.3-25.4,25.3c-14.1,0-25.4-11.3-25.4-25.3c0-14,11.4-25.3,25.4-25.3
		C-44,155.6-32.7,166.9-32.7,180.9 M-6.3,180.9c0-28-22.8-50.6-50.9-50.6c-28.1,0-50.9,22.7-50.9,50.6c0,12.3,4.4,23.6,11.7,32.3
		l39.2,56.3l39.8-57.1c1.4-1.8,2.7-3.7,3.9-5.6l0.4-0.6h-0.1C-8.7,198.8-6.3,190.1-6.3,180.9"/>
</g>
<g id="Livello_1_1_">
</g>
</svg>