<?xml version="1.0" encoding="utf-8"?>
<!-- Generator: Adobe Illustrator 18.1.1, SVG Export Plug-In . SVG Version: 6.00 Build 0)  -->
<svg version="1.1" id="Layer_1" xmlns="http://www.w3.org/2000/svg" xmlns:xlink="http://www.w3.org/1999/xlink" x="0px" y="0px"
	 viewBox="-175 177 48 48" enable-background="new -175 177 48 48" xml:space="preserve">
<path fill="#FFFFFF" d="M-161.8,198.6c2.9,5.7,7.5,10.3,13.2,13.2l4.4-4.4c0.6-0.6,1.3-0.7,2-0.5c2.2,0.7,4.7,1.1,7.1,1.1
	c1.1,0,2,0.9,2,2v7c0,1.1-0.9,2-2,2c-18.8,0-34-15.2-34-34c0-1.1,0.9-2,2-2h7c1.1,0,2,0.9,2,2c0,2.5,0.4,4.9,1.1,7.1
	c0.2,0.7,0.1,1.5-0.5,2L-161.8,198.6z"/>
</svg>
