 <svg version="1.1" id="Layer_1"     xmlns="http://www.w3.org/2000/svg"     xmlns:xlink="http://www.w3.org/1999/xlink" x="0px" y="0px"
                                             viewBox="56 -56 512 512" enable-background="new 56 -56 512 512" xml:space="preserve">
                                        <path fill="#00000" d="M312-56C170.6-56,56,58.6,56,200s114.6,256,256,256s256-114.6,256-256S453.4-56,312-56z M447.2,317.5
                                            L426.7,338c-3.7,3.7-14.4,5.9-14.7,5.9c-64.8,0.6-127.3-24.9-173.2-70.8c-46-46-71.5-108.7-70.8-173.8c0,0,2.3-10.4,6-14.1
                                            l20.5-20.5c7.5-7.5,21.9-10.9,32-7.6l4.3,1.4c10.1,3.4,20.6,14.5,23.4,24.8l10.3,37.8c2.8,10.3-1,24.9-8.5,32.4l-13.7,13.7
                                            c13.4,49.7,52.5,88.8,102.2,102.2l13.7-13.7c7.5-7.5,22.2-11.3,32.4-8.5l37.8,10.3c10.2,2.8,21.4,13.3,24.8,23.4l1.4,4.4
                                            C458.1,295.7,454.7,310.1,447.2,317.5z"/>
</svg>