<?xml version="1.0" encoding="utf-8"?>
<!-- Generator: Adobe Illustrator 18.1.1, SVG Export Plug-In . SVG Version: 6.00 Build 0)  -->
<svg version="1.1" id="signature_xA0_Image_1_" xmlns="http://www.w3.org/2000/svg" xmlns:xlink="http://www.w3.org/1999/xlink"
	 x="0px" y="0px" viewBox="374.3 21 279.7 172.8" enable-background="new 374.3 21 279.7 172.8" xml:space="preserve">
<g>
	<path fill="#FFFFFF" d="M374.3,193.8c0-57.2,0-114.4,0-171.6c93.2,0,186.4,0,279.7,0c0,57.2,0,114.4,0,171.6
		C560.8,193.8,467.6,193.8,374.3,193.8z M533.9,142.7c0.7,0.3,1.5,0.5,2.2,0.8c0.8-1.4,2-2.7,2.4-4.2c2.2-7.5,4.4-15,6.2-22.5
		c0.7-2.9,2.4-3,5-2.7c4,0.4,8.2,1.4,11.9,0.6c3.7-0.8,4.9,0.6,6.6,2.8c1.6,2,3.5,3.8,4.9,5.3c5.8-3,0.4-11.2,9-11.2
		c1.1,1.7,1.8,3.6,3.3,4.8c2,1.6,4.8,3.3,7,3.1c1.6-0.1,3.2-3.2,4.3-5.2c1.2-2,1.7-4.2,2.8-7.1c2.9,3.8,4.7,6.8,7.2,9.4
		c1.7,1.6,4.7,3.3,6.5,2.9c1.6-0.3,2.6-3.5,3.6-5.7c0.5-1.1,0.3-2.3,0.3-2.7c8.2,3.5,16.1,7.1,24.3,10.2c4.4,1.7,9.2-1.1,10.4-5.4
		c1.7-6-1.5-10.7-5.3-15c-6.8-7.5-15.5-12.9-24.5-17.8c-1.3-0.7-2.8-2.1-2.9-3.4c-1.3-9.7-1.8-19.5-3.4-29.1
		c-1.5-8.2-3.3-16.6-9.4-23.3c-2.8-2.9-6.2-5.4-10.4-3.4c-4.9,2.2-10.3,4.8-13.5,8.6c-6.9,8.3-13,17.3-18.4,26.4
		c-2.3,4-4.8,4.7-8.8,4.5c-7-0.4-13.9-0.8-20.9-1c-1.5,0-3,0.7-5,1.3c1.8,2.3,3.1,3.9,4.9,6.1c0.2-2,0.3-3.2,0.4-4.8
		c8.6,0.4,16.7,0.8,25,1.2c-5.7,14.7-11.2,28.9-16.7,42.9c-12.1-3.8-12-12.1-9.3-21.7c-2.3,1.6-3.8,3.1-4.6,4.9
		c-2,5.1-3.5,10.2-5.5,15.2c-0.4,1.1-2.1,2.6-3,2.5c-1.5-0.2-3.7-1.3-4-2.3c-1-4.3-1.5-8.7-1.9-13c-0.2-1.6,0.2-3.1,0.3-4.7
		c-0.7-0.2-1.5-0.4-2.2-0.7c-3.9,7.6-7.9,15.1-11.9,22.7c-0.4,0.1-0.8,0.1-1.4,0.2c-0.8-2.9-2.1-5.9-2.4-8.8
		c-1-9.3-1.4-18.6-2.3-27.9c-0.2-1.8-1.9-3.4-3-5.2c-1.7,1.1-4.1,1.7-4.9,3.1c-3.6,6.8-7.6,13.7-9.6,20.9
		c-1.8,6.4-1.7,13.6-1.2,20.2c0.3,4.3,4.2,5.2,7.2,1.8c3.3-3.6,5.6-7.9,8.2-11.6c-0.2,2-0.5,4.7-0.7,6.6c2.4,0.4,4.7,0.1,5.5,0.9
		c4.4,4.4,6.6,4.2,9.1-1.2c1.8-3.8,3.3-7.7,5-11.6c1.2,1.1,1.2,2,1.5,2.8c1.4,3.2,2.3,6.7,4.4,9.4c2.9,3.6,5.5,3.2,7.8-0.7
		c1.8-2.9,3.6-5.9,5.4-8.8c-0.5,0.8-1.1,1.6-1.7,2.3c4.1,3.2,8.3,6.4,13,10.1C539,122.8,536.4,132.7,533.9,142.7z M388.9,111.8
		c0.6,0.9,1.1,1.6,1.5,2.2c6.5,13.6,22.9,13,33.2,8c7.6-3.7,14.9-7.5,20.7-13.5c0.6-0.7,1.9-0.9,3.2-1.5
		c-2.4,10.7-5.2,21.1-6.9,31.6c-2,11.8-3,23.8-4.7,35.7c-0.5,4.1-1.8,8.1-2.2,12.2c-0.2,2,0.7,4.3,1.2,6.4c0.5-0.1,1.2-0.2,1.7-0.4
		c0.8-3.2,2.1-6.3,2.5-9.7c2.2-15.5,3.9-31.1,6.6-46.5c2.6-15.6,4.8-31.5,12.5-46c1.5-2.8,2.8-5.9,3.2-9c1.7-11.4,3-22.8,4.3-34.2
		c0.5-4.6,0.8-9.3,1-13.9c0-1.5-1.1-3-1.6-4.5c-1.7,3.3-2,6.4-2.6,9.5c-3.6,17.1-7,34.1-10.7,51.1c-1,4.1-1.6,9-4.2,12
		c-8.1,9.2-17.8,17-30.4,20.4c-10.3,2.7-20.9,1.7-23.3-10.1c-1.1-4.9,0.2-10.2,1-15.3c0.8-5.5,2.3-10.9,3.6-16.9
		c-5.1,1.6-5.5,2.7-7,9.3c-1.6,7.4-1.5,15.1-6,22c-3.8,5.8-6.5,12.1-10,18.6c1.7,0,3.1,0.3,3.3,0C382,123.6,385.3,118,388.9,111.8z"
		/>
	<path d="M533.9,142.7c2.5-9.9,5.1-19.9,7.2-28.3c-4.8-3.7-8.9-6.9-13-10.1c0.5-0.8,1.1-1.6,1.7-2.3c-1.8,2.9-3.6,5.9-5.4,8.8
		c-2.3,3.8-5,4.3-7.8,0.7c-2.1-2.7-3.1-6.2-4.4-9.4c-0.3-0.8-0.3-1.8-1.5-2.8c-1.6,3.9-3.2,7.8-5,11.6c-2.5,5.5-4.8,5.6-9.1,1.2
		c-0.8-0.9-3.1-0.6-5.5-0.9c0.2-2,0.4-4.5,0.7-6.6c-2.5,3.7-5,8-8.2,11.6c-3,3.3-6.9,2.4-7.2-1.8c-0.5-6.7-0.6-13.8,1.2-20.2
		c2-7.2,6-14,9.6-20.9c0.7-1.5,3.2-2.1,4.9-3.1c1.1,1.8,2.8,3.4,3,5.2c1,9.3,1.4,18.6,2.3,27.9c0.3,3,1.6,5.9,2.4,8.8
		c0.4-0.1,0.8-0.1,1.4-0.2c3.9-7.6,7.9-15.1,11.9-22.7c0.7,0.2,1.5,0.4,2.2,0.7c-0.1,1.6-0.5,3.2-0.3,4.7c0.4,4.4,0.8,8.8,1.9,13
		c0.2,1.1,2.5,2.2,4,2.3c0.8,0.1,2.5-1.5,3-2.5c2-5.1,3.5-10.2,5.5-15.2c0.7-1.8,2.1-3.3,4.6-4.9c-2.6,9.8-2.8,17.9,9.3,21.7
		c5.5-14,11-28.2,16.7-42.9c-8.4-0.4-16.5-0.8-25-1.2c-0.1,1.6-0.2,2.8-0.4,4.8c-1.7-2.2-3-3.8-4.9-6.1c2-0.5,3.5-1.3,5-1.3
		c7,0.2,13.9,0.5,20.9,1c4,0.3,6.5-0.4,8.8-4.5c5.4-9.3,11.5-18.1,18.4-26.4c3.2-3.8,8.6-6.3,13.5-8.6c4.1-2,7.6,0.5,10.4,3.4
		c6.1,6.7,7.9,15.1,9.4,23.3c1.7,9.7,2.2,19.4,3.4,29.1c0.2,1.3,1.6,2.6,2.9,3.4c9,5,17.7,10.3,24.5,17.8c3.9,4.3,7,9,5.3,15
		c-1.2,4.3-6,7-10.4,5.4c-8.2-3.1-16.1-6.7-24.3-10.2c0,0.4,0.2,1.7-0.3,2.7c-1,2-2,5.3-3.6,5.7c-1.9,0.4-4.9-1.4-6.5-2.9
		c-2.5-2.4-4.3-5.6-7.2-9.4c-1.1,2.9-1.6,5.2-2.8,7.1s-2.8,5.1-4.3,5.2c-2.2,0.2-5-1.6-7-3.1c-1.5-1.2-2.2-3.1-3.3-4.8
		c-8.6,0-3.2,8.2-9,11.2c-1.4-1.5-3.4-3.2-4.9-5.3c-1.7-2.1-2.9-3.6-6.6-2.8c-3.7,0.8-7.9-0.2-11.9-0.6c-2.5-0.2-4.2-0.2-5,2.7
		c-1.9,7.6-4,15-6.2,22.5c-0.4,1.5-1.6,2.8-2.4,4.2C535.4,143.2,534.6,143,533.9,142.7z M563.6,66.3c-2.5,5.7-5,10.6-7.1,15.6
		c-2.2,5.4-6.2,11,2.3,15.2c1.4,0.7,2,2.5,2.9,3.9c1.3,2.2,2.2,4.8,3.8,6.7c1.2,1.4,3.7,3.1,5,2.8c2-0.6,3.6-2.6,4.9-4.4
		c1.2-1.6,1.7-3.5,3.1-6.4c2.2,3.5,3.7,5.9,5.3,8.4c10.5-3.9,19.8-8.8,26.8-16.7c2.2-2.5,3.4-5.9,5.8-10.1
		C598,76.1,580.9,71.2,563.6,66.3z M563.5,64.3c19.1,3,35.7,7.4,51.5,15c0.6-1.7,1.7-3.3,1.6-4.9c-1.2-12.8-2.5-25.6-7.2-37.8
		c-4.7-12.2-12.7-14.2-22.1-5.2c-3.1,3-5.9,6.2-8.4,9.8C573.7,48.6,568.9,56.2,563.5,64.3z M615.4,104c2,1.5,3.2,2.6,4.7,3.3
		c7,3.6,14,7.4,21.2,10.5c1.7,0.8,5.3-0.3,6.8-1.7c1.2-1.2,1-4,0.6-6c-1.2-7-7.3-10.8-12.5-15c-5.3-4.3-11.7-7.5-17.9-11.5
		c-3.1,8.1-8.3,13.3-14.7,17.6c-1,0.6-1.9,2.4-1.6,3.3c1.7,4.8,4.7,8.8,10.1,11.6C613.2,112.2,614.2,108.7,615.4,104z M491.4,73.8
		c-7.7,2.3-14.9,28.2-10.9,41.1C489.1,101.7,496.6,89.5,491.4,73.8z M563.6,111.2c-3-4.6-5.7-9-9.3-14.5c-3.1,5.5-5.3,9.5-8.2,14.5
		C552.3,111.2,557.4,111.2,563.6,111.2z M596.5,107c-0.4-0.2-1-0.4-1.4-0.5c-3.2,1.3-6.4,2.4-9.7,3.8c1.6,2.3,3.1,4.6,4.6,6.8
		c0.5,0,1.2-0.1,1.7-0.1C593.3,113.6,594.9,110.3,596.5,107z"/>
	<path d="M388.9,111.8c-3.6,6.1-6.9,11.8-10.4,17.4c-0.2,0.3-1.6,0-3.3,0c3.4-6.5,6.1-12.9,10-18.6c4.6-6.9,4.4-14.6,6-22
		c1.5-6.6,1.9-7.8,7-9.3c-1.3,5.9-2.8,11.4-3.6,16.9c-0.7,5.1-2,10.4-1,15.3c2.4,11.8,13.1,12.8,23.3,10.1
		c12.5-3.2,22.2-11,30.3-20.2c2.6-3,3.4-7.9,4.2-12c3.7-17,7.2-34,10.7-51c0.6-3,1-6.1,2.6-9.5c0.5,1.5,1.6,3,1.6,4.5
		c-0.1,4.7-0.4,9.3-1,13.9c-1.3,11.4-2.6,22.8-4.3,34.2c-0.4,3.1-1.7,6.1-3.2,9c-7.7,14.5-9.9,30.3-12.5,46
		c-2.6,15.4-4.2,31-6.6,46.5c-0.4,3.2-1.7,6.4-2.5,9.7c-0.5,0.1-1.2,0.2-1.7,0.4c-0.4-2.1-1.4-4.4-1.2-6.4c0.4-4.1,1.7-8.1,2.2-12.2
		c1.6-11.9,2.6-23.9,4.7-35.7c1.8-10.4,4.6-20.8,6.9-31.6c-1.3,0.6-2.5,0.8-3.2,1.5c-5.8,5.9-13,9.8-20.7,13.5
		c-10.3,5-26.7,5.6-33.2-8C389.9,113.4,389.5,112.8,388.9,111.8z M463.5,57.8c-0.5-0.1-1.2-0.2-1.7-0.3c-1.4,7.3-2.6,14.6-4,22
		c0.5,0.1,1.1,0.2,1.6,0.3C460.8,72.5,462.2,65.1,463.5,57.8z"/>
	<path fill="#FFFFFF" d="M563.6,66.3c17.3,5,34.2,9.8,52.9,15.1c-2.4,4.3-3.6,7.6-5.8,10.1c-7,7.9-16.3,12.8-26.8,16.7
		c-1.6-2.5-3.1-4.9-5.3-8.4c-1.4,2.9-1.9,4.9-3.1,6.4c-1.3,1.8-3,3.8-4.9,4.4c-1.3,0.4-3.8-1.4-5-2.8c-1.7-2-2.5-4.5-3.8-6.7
		c-0.8-1.4-1.5-3.3-2.9-3.9c-8.6-4.1-4.6-9.8-2.3-15.2C558.7,76.8,561.1,72,563.6,66.3z"/>
	<path fill="#FFFFFF" d="M563.5,64.3c5.4-8.1,10.2-15.7,15.4-23.1c2.4-3.5,5.3-6.7,8.4-9.8c9.4-9.1,17.5-7,22.1,5.2
		c4.7,12.3,6,25.1,7.2,37.8c0.1,1.6-1.1,3.2-1.6,4.9C599.2,71.7,582.7,67.3,563.5,64.3z"/>
	<path fill="#FFFFFF" d="M615.4,104c-1.3,4.7-2.2,8.1-3.3,12.2c-5.4-2.8-8.4-6.8-10.1-11.6c-0.3-0.9,0.6-2.7,1.6-3.3
		c6.5-4.3,11.8-9.5,14.7-17.6c6.4,4,12.6,7.2,17.9,11.5c5.1,4.2,11.3,8,12.5,15c0.3,2,0.5,4.9-0.6,6c-1.5,1.4-5.1,2.3-6.8,1.7
		c-7.3-3.1-14.2-6.9-21.2-10.5C618.7,106.7,617.5,105.5,615.4,104z"/>
	<path fill="#FFFFFF" d="M491.4,73.8c5.2,15.6-2.3,27.9-10.9,41.1C476.5,102.1,483.7,76.3,491.4,73.8z"/>
	<path fill="#FFFFFF" d="M563.6,111.2c-6.1,0-11.3,0-17.5,0c2.8-5,5.1-9,8.2-14.5C557.8,102.2,560.7,106.6,563.6,111.2z"/>
	<path fill="#FFFFFF" d="M596.5,107c-1.6,3.3-3.2,6.6-4.8,9.9c-0.5,0-1.2,0.1-1.7,0.1c-1.5-2.2-3-4.5-4.6-6.8
		c3.4-1.4,6.6-2.5,9.7-3.8C595.5,106.7,596.1,106.8,596.5,107z"/>
	<path fill="#FFFFFF" d="M463.5,57.8c-1.4,7.3-2.8,14.6-4.1,21.9c-0.5-0.1-1.1-0.2-1.6-0.3c1.4-7.3,2.6-14.6,4-22
		C462.4,57.6,463,57.7,463.5,57.8z"/>
</g>
<path fill="none" d="M-705.5,557.6"/>
</svg>
